<svg xmlns="http://www.w3.org/2000/svg" xmlns:xlink="http://www.w3.org/1999/xlink" version="1.1" id="Layer_1" x="0px" y="0px" width="100px" height="97.0930232558px" viewBox="0 0 172 167" enable-background="new 0 0 172 167" xml:space="preserve">
<g>
	<g>
		<g>
			<g>
				<g>
					<polygon fill="#000000" points="12.227,30.309 75.953,38.167 58.884,8.83      "/>
				</g>
			</g>
			<g>
				<path fill="#000000" d="M129.065,8.779c-17.575,0-32.412,6.473-32.412,14.127s14.837,14.127,32.412,14.127      c17.557,0,32.396-6.473,32.396-14.127S146.623,8.779,129.065,8.779z"/>
			</g>
			<g>
				<polygon fill="#000000" points="11.484,98.66 74.177,106.399 77.186,41.292 8.476,32.809     "/>
			</g>
			<g>
				<path fill="#000000" d="M94.423,152.499c-15.412,0-28.423-5.036-31.618-12.233c-0.49-1.133-0.759-2.3-0.759-3.464      c0-8.805,14.229-15.7,32.377-15.7c18.149,0,32.378,6.896,32.378,15.7c0,0.996-0.187,1.993-0.558,2.972      C123.455,147.143,110.07,152.499,94.423,152.499z M94.423,124.024c-15.952,0-29.438,5.848-29.438,12.777      c0,0.761,0.188,1.52,0.507,2.264c0.456,1.013,1.202,2.011,2.231,2.974c5.983-4.224,15.835-6.709,26.7-6.709      c10.866,0,20.717,2.485,26.7,6.692c1.149-1.064,1.944-2.163,2.366-3.296c0.238-0.641,0.373-1.284,0.373-1.925      C123.861,129.873,110.375,124.024,94.423,124.024z"/>
			</g>
			<g>
				<path fill="#000000" d="M96.975,30.224l2.652,62.184c0,6.961,13.486,12.809,29.438,12.809c15.953,0,29.42-5.848,29.42-12.759      l2.653-62.234c-5.56,5.847-17.658,9.75-32.074,9.75C114.635,39.974,102.518,36.07,96.975,30.224z"/>
			</g>
		</g>
	</g>
</g>
</svg>