<?xml version="1.0" encoding="UTF-8" standalone="no"?>
<svg
   xmlns:sketch="http://www.bohemiancoding.com/sketch/ns"
   xmlns:dc="http://purl.org/dc/elements/1.1/"
   xmlns:cc="http://creativecommons.org/ns#"
   xmlns:rdf="http://www.w3.org/1999/02/22-rdf-syntax-ns#"
   xmlns:svg="http://www.w3.org/2000/svg"
   xmlns="http://www.w3.org/2000/svg"
   xmlns:sodipodi="http://sodipodi.sourceforge.net/DTD/sodipodi-0.dtd"
   xmlns:inkscape="http://www.inkscape.org/namespaces/inkscape"
   width="350"
   height="350"
   viewBox="0 0 350 350"
   version="1.1"
   id="svg2"
   inkscape:version="0.48.4 r9939"
   sodipodi:docname="Devthon-fire-Brand__offwhite_.svg">
  <metadata
     id="metadata54">
    <rdf:RDF>
      <cc:Work
         rdf:about="">
        <dc:format>image/svg+xml</dc:format>
        <dc:type
           rdf:resource="http://purl.org/dc/dcmitype/StillImage" />
        <dc:title>Logo Branding Guidlines</dc:title>
      </cc:Work>
    </rdf:RDF>
  </metadata>
  <sodipodi:namedview
     pagecolor="#ffffff"
     bordercolor="#666666"
     borderopacity="1"
     objecttolerance="10"
     gridtolerance="10"
     guidetolerance="10"
     inkscape:pageopacity="0"
     inkscape:pageshadow="2"
     inkscape:window-width="1366"
     inkscape:window-height="709"
     id="namedview52"
     showgrid="false"
     inkscape:zoom="0.39333333"
     inkscape:cx="400"
     inkscape:cy="300"
     inkscape:window-x="0"
     inkscape:window-y="27"
     inkscape:window-maximized="1"
     inkscape:current-layer="svg2" />
  <title
     id="title4">Logo Branding Guidlines</title>
  <description
     id="description6">Created with Sketch (http://www.bohemiancoding.com/sketch)</description>
  <defs
     id="defs8">
    <rect
       id="path-1"
       x="44"
       y="332"
       width="350"
       height="78" />
  </defs>
  <path
     d="m 166.663,16 c 0,0 14.55087,22.651408 -10.64899,49.321304 -25.19987,26.669897 -41.81915,41.251126 -39.00893,67.482316 2.81021,26.23119 18.87549,24.94747 24.38895,27.1835 -17.48677,2.62663 -35.85722,-12.28902 -35.85722,-38.99637 -12.506081,26.7127 -6.45543,43.70225 -2.98611,53.82333 3.46931,10.12108 26.19698,45.10941 74.8929,40.82404 48.69592,-4.28537 69.47922,-34.8483 75.1213,-56.64789 5.64208,-21.79959 -6.21955,-41.31239 -20.44568,-59.097678 -14.22614,-17.785283 -14.36703,-23.14832 -14.36702,-28.683819 0,-5.535498 5.40203,-12.383534 5.40203,-12.383534 -16.2155,14.308403 -18.55787,15.104918 -9.27894,48.640681 6.94354,35.93787 -15.33651,43.70645 -18.64811,45.84975 14.93547,-18.42338 14.93547,-40.82918 -10.78432,-54.589144 5.09511,9.983594 5.10621,12.127794 5.44436,16.542384 -0.66363,7.74864 -5.94246,11.51775 -11.98698,11.51775 -8.70318,0 -15.34517,-6.54309 -12.09096,-18.06527 3.25422,-11.522175 25.36051,-30.577196 25.3605,-56.845838 C 191.16978,25.606869 166.663,16 166.663,16 z m 0,0"
     sketch:type="MSShapeGroup"
     id="path14"
     inkscape:connector-curvature="0"
     style="fill:#f2f2f2;stroke:none" />
  <path
     d="m 160.84039,286.77877 -20.51553,50.16718 -7.62712,0 -22.45763,-54.91622 7.52119,0 18.96186,48.27567 19.0678,-48.27567 6.02048,0 6.65607,0 0,-18.55135 7.20339,0 0,18.55135 12.71187,0 0,5.69189 -12.71187,0 0,37.31352 c 0.3178,4.0054 3.17797,5.9027 6.67373,5.9027 4.02543,0 7.52119,-1.8973 8.36865,-2.42433 l 1.90678,5.7973 c -1.69492,0.73784 0,0 0,0 -1.69492,0.73784 -6.5678,3.26757 -12.5,3.26757 -6.25,0 -11.65255,-3.47838 -11.65255,-10.54054 l 0,-39.31622 -7.62712,0 0,-0.94285 0,0 z M 26.483051,338 c 8.050847,0 16.101695,-4.53243 20.550847,-11.7 l 0,5.7973 c 0,2.84594 2.542373,5.16486 6.038136,5.16486 0.741525,0 1.694915,-0.1054 2.860169,-0.31621 l 0,-6.32433 c -1.800847,0 -2.542372,-0.94865 -2.542372,-2.95135 l 0,-67.67027 -7.20339,0 0,33.51892 C 41.949152,286.66757 34.533898,281.08108 25.211864,281.08108 10.59322,281.08108 0,294.15135 0,309.64595 0,324.4027 11.122881,338 26.483051,338 c 0,0 -15.36017,0 0,0 z m 1.483051,-6.32432 c -11.546611,0 -20.5508478,-10.11892 -20.5508478,-22.02973 0,-11.27838 7.8389828,-22.24055 19.7033898,-22.24055 7.521187,0 16.207627,6.11352 19.067797,13.70271 l 0,16.97027 c -1.165255,7.48378 -10.911017,13.5973 -18.220339,13.5973 z M 86.687853,338 c 10.59322,0 20.021187,-5.69189 23.411017,-13.7027 l -6.25,-1.68649 c -2.54237,5.9027 -9.63983,9.90811 -16.949153,9.90811 -10.59322,0 -19.491525,-8.64324 -20.338983,-20.44865 l 47.139826,0 c 0.10594,-0.42162 0.21187,-1.79189 0.21187,-2.84595 -0.10593,-15.07297 -11.22881,-28.14324 -27.330509,-28.14324 -15.995763,0 -27.648305,12.85946 -27.648305,28.24865 0,15.6 11.652542,28.67027 27.754237,28.67027 0,0 -16.101695,0 0,0 z M 66.34887,306.58919 c 0.741525,-11.5946 9.427966,-19.92162 20.233051,-19.92162 10.805085,0 19.491529,8.22162 20.444919,19.92162 0,0 -0.95339,-11.7 0,0 l -40.67797,0 z m 173.41102,-1.79189 c 0,-14.12433 -4.76695,-23.71622 -17.47882,-23.71622 -8.8983,0 -17.26695,5.16487 -21.7161,13.38649 l 0,-34.46757 -7.20339,0 0,76.94595 7.20339,0 0,-33.62433 c 2.54237,-8.95946 11.12288,-15.7054 19.27966,-15.7054 8.26271,0 12.71187,6.21891 12.71187,18.65675 l 0,30.67298 7.20339,0 0,-32.14865 z M 271.46893,338 c 15.88983,0 27.43644,-13.07027 27.43644,-28.35405 0,-15.38919 -11.65255,-28.56487 -27.43644,-28.56487 -15.7839,0 -27.43644,13.17568 -27.43644,28.56487 0,15.28378 11.33474,28.35405 27.43644,28.35405 0,0 -16.1017,0 0,0 z m -20.02119,-28.24865 c 0,-12.33243 9.00424,-22.34595 20.02119,-22.34595 10.91101,0 20.02118,9.90811 20.02118,22.13514 0,12.22703 -9.11017,22.13514 -20.12712,22.13514 -11.01695,0 -19.91525,-9.6973 -19.91525,-21.92433 0,0 0,12.22703 0,0 z M 350,304.7973 c 0,-14.44054 -4.02542,-23.71622 -16.41949,-23.71622 -9.74576,0 -18.96187,5.37568 -23.41102,13.38649 l 0,-12.43784 -6.5678,0 0,54.91622 7.2034,0 0,-33.62433 c 2.75423,-9.06486 11.65254,-15.7054 20.23305,-15.7054 8.05084,0 11.75847,5.69189 11.75847,18.65675 l 0,30.67298 7.20339,0 0,-32.14865 z m 0,0"
     id="Logotype"
     sketch:type="MSShapeGroup"
     inkscape:connector-curvature="0"
     style="fill:#f2f2f2;stroke:none" />
</svg>
