<?xml version="1.0" encoding="UTF-8" standalone="no"?>
<svg
   xmlns:sketch="http://www.bohemiancoding.com/sketch/ns"
   xmlns:dc="http://purl.org/dc/elements/1.1/"
   xmlns:cc="http://creativecommons.org/ns#"
   xmlns:rdf="http://www.w3.org/1999/02/22-rdf-syntax-ns#"
   xmlns:svg="http://www.w3.org/2000/svg"
   xmlns="http://www.w3.org/2000/svg"
   xmlns:sodipodi="http://sodipodi.sourceforge.net/DTD/sodipodi-0.dtd"
   xmlns:inkscape="http://www.inkscape.org/namespaces/inkscape"
   width="100"
   height="100"
   viewBox="0 0 100 100"
   version="1.1"
   id="svg3044"
   inkscape:version="0.48.4 r9939"
   sodipodi:docname="Devthon-fire-Logo__white_.svg"
   inkscape:export-filename="/home/prashant/Dropbox/devthon/logos_and_badges_fire_logo_online_svg/Logo Branding Guidlines 2.png"
   inkscape:export-xdpi="576.91998"
   inkscape:export-ydpi="576.91998">
  <metadata
     id="metadata3057">
    <rdf:RDF>
      <cc:Work
         rdf:about="">
        <dc:format>image/svg+xml</dc:format>
        <dc:type
           rdf:resource="http://purl.org/dc/dcmitype/StillImage" />
        <dc:title>Logo Branding Guidlines 2</dc:title>
      </cc:Work>
    </rdf:RDF>
  </metadata>
  <sodipodi:namedview
     pagecolor="#ffffff"
     bordercolor="#666666"
     borderopacity="1"
     objecttolerance="10"
     gridtolerance="10"
     guidetolerance="10"
     inkscape:pageopacity="0"
     inkscape:pageshadow="2"
     inkscape:window-width="1366"
     inkscape:window-height="709"
     id="namedview3055"
     showgrid="false"
     inkscape:zoom="1.25"
     inkscape:cx="74.38551"
     inkscape:cy="53.64445"
     inkscape:window-x="0"
     inkscape:window-y="27"
     inkscape:window-maximized="1"
     inkscape:current-layer="svg3044" />
  <title
     id="title3046">Logo Branding Guidlines 2</title>
  <description
     id="description3048">Created with Sketch (http://www.bohemiancoding.com/sketch)</description>
  <defs
     id="defs3050" />
  <path
     style="fill:#ffffff;fill-rule:evenodd;stroke:none"
     inkscape:connector-curvature="0"
     sketch:type="MSShapeGroup"
     id="Logo"
     d="m 46.331503,-3.3272882e-7 c 0,0 7.275441,11.32570033272882 -5.3245,24.66065133272882 -12.599931,13.33495 -20.90957,20.62556 -19.50446,33.74116 1.4051,13.11559 9.43775,12.47373 12.19447,13.591751 -8.74338,1.31331 -17.928611,-6.144511 -17.928611,-19.498181 -6.25304,13.35634 -3.22771,21.851121 -1.49305,26.911659 1.73465,5.06054 13.098491,22.5547 37.446453,20.41202 C 76.06976,97.67637 86.46141,82.39491 89.28245,71.495111 92.10349,60.595321 86.17268,50.838921 79.05961,41.946281 71.94654,33.053631 71.8761,30.372121 71.8761,27.604371 c 0,-2.76775 2.70102,-6.19177 2.70101,-6.19177 -8.10773,7.1542 -9.27892,7.55246 -4.63945,24.32034 3.47176,17.96893 -7.66826,21.85323 -9.324065,22.92487 7.467745,-9.21169 7.467745,-20.41458 -5.39216,-27.29457 2.547549,4.9918 2.55311,6.0639 2.722179,8.27119 -0.331809,3.87432 -2.97123,5.75888 -5.99349,5.75888 -4.35159,0 -7.67259,-3.27154 -6.04548,-9.03263 1.62711,-5.76109 12.68025,-15.2886 12.68025,-28.42292 C 58.584894,4.8034297 46.331503,-3.3272882e-7 46.331503,-3.3272882e-7 z m 0,0" />
</svg>
