<?xml version="1.0" encoding="UTF-8" standalone="no"?>
<!-- Created with Inkscape (http://www.inkscape.org/) -->

<svg
   xmlns:dc="http://purl.org/dc/elements/1.1/"
   xmlns:cc="http://creativecommons.org/ns#"
   xmlns:rdf="http://www.w3.org/1999/02/22-rdf-syntax-ns#"
   xmlns:svg="http://www.w3.org/2000/svg"
   xmlns="http://www.w3.org/2000/svg"
   xmlns:sodipodi="http://sodipodi.sourceforge.net/DTD/sodipodi-0.dtd"
   xmlns:inkscape="http://www.inkscape.org/namespaces/inkscape"
   width="165"
   height="65"
   id="svg4531"
   version="1.1"
   inkscape:version="0.48.4 r9939"
   sodipodi:docname="Pointer-hackers_say.svg">
  <defs
     id="defs4533" />
  <sodipodi:namedview
     id="base"
     pagecolor="#ffffff"
     bordercolor="#666666"
     borderopacity="1.0"
     inkscape:pageopacity="0.0"
     inkscape:pageshadow="2"
     inkscape:zoom="1.4"
     inkscape:cx="59.66311"
     inkscape:cy="45.608096"
     inkscape:document-units="px"
     inkscape:current-layer="layer1"
     showgrid="false"
     inkscape:window-width="1366"
     inkscape:window-height="709"
     inkscape:window-x="0"
     inkscape:window-y="27"
     inkscape:window-maximized="1" />
  <metadata
     id="metadata4536">
    <rdf:RDF>
      <cc:Work
         rdf:about="">
        <dc:format>image/svg+xml</dc:format>
        <dc:type
           rdf:resource="http://purl.org/dc/dcmitype/StillImage" />
        <dc:title />
      </cc:Work>
    </rdf:RDF>
  </metadata>
  <g
     inkscape:label="Layer 1"
     inkscape:groupmode="layer"
     id="layer1"
     transform="translate(0,-987.36217)">
    <path
       d="m 85.6836,1021.6498 c -12.868138,3.4818 -28.024898,6.8791 -42.908788,9.0349 -9.78174,1.4153 -19.44204,2.2817 -28.29179,2.2932 -0.009,0.02 -0.0305,0.044 -0.0389,0.065 l -1.10212,0 c 0.009,-0.022 0.0282,-0.043 0.0389,-0.065 -0.11744,0 -0.2361,0 -0.34897,0 l 0.25958,-0.5791 c 0.1403,0 0.28437,0 0.4248,0 2.8405,-4.3023 15.94036,-9.6677 22.37814,-13.1193 0.0489,-0.027 0.10023,-0.054 0.14916,-0.082 l 0,0 c 0.004,-6e-4 0.007,0 0.009,0 l 0.73654,0.3476 c -5.34928,2.9182 -15.40747,8.4612 -20.9267,12.6981 l -0.90082,-0.2432 0.004,-6e-4 c 2.75585,-2.1128 6.57912,-4.5207 10.38603,-6.7698 -4.84817,2.4701 -9.30419,5.048 -10.72873,7.1691 8.68567,-0.018 18.2074,-0.8738 27.87434,-2.2725 14.76718,-2.1365 29.839681,-5.5127 42.645751,-8.9785 19.273157,-5.1848 58.433957,-19.3576 56.496427,-31.82728 -0.0543,-0.3803 -0.14971,-0.7582 -0.27492,-1.1362 l 1.10685,-0.2122 0.006,-9e-4 c 0.13195,0.3929 0.23459,0.7902 0.28694,1.189 1.72233,13.13418 -37.90156,27.21728 -57.281103,32.49348 z m -48.035348,-2.0868 0,0 c 0.004,-5e-4 0.004,-5e-4 0.004,-5e-4 z m -33.3318104,12.2486 c 7.2199004,-4.2162 14.0422404,-9.2534 22.5218104,-12.7244 1.69903,-0.9395 3.38244,-1.8595 5.02978,-2.7426 l 0.51342,0.249 0.42891,-0.2299 c 1.41296,0.6764 2.82416,1.3566 4.23757,2.0363 0.486,0.234 0.97664,0.4684 1.4626,0.7022 l -0.86,0.4605 c -0.48614,-0.2351 -0.97649,-0.4673 -1.46277,-0.7034 -0.89968,-0.4283 -1.79743,-0.8591 -2.6931,-1.2915 -0.4439,-0.2126 -0.8854,-0.4247 -1.32704,-0.6377 -0.40331,0.2161 -0.80871,0.4337 -1.21364,0.6546 0.027,0 0.0502,-0.018 0.0767,-0.026 l 0.43076,0.4746 c -1.34682,0.4298 -2.65224,0.9082 -3.92465,1.4248 -7.69138,4.2607 -15.75528,8.9691 -22.6963504,12.8215 -1.4023,0.8135 -2.82461,1.5994 -4.28091004,2.3403 -0.003,4e-4 -0.004,6e-4 -0.007,0 l -0.003,4e-4 c -0.004,6e-4 -0.009,0 -0.0135,0 l -0.71734,-0.3582 c 1.43142004,-0.7702 2.93544004,-1.5951 4.49546004,-2.4622 z m 19.8934004,18.9053 -1.09065,0.2612 c -2.77262,-5.0805 -12.76944,-10.8957 -19.4979804,-15.1722 4.02018,5.7728 14.7788104,10.3597 19.5879804,15.6574 2.03342,-1.0911 4.0651,-2.1784 6.09611,-3.2702 l 0.003,-5e-4 c 0,0 0,0 0.003,-4e-4 l 0.72588,0.3536 -0.003,4e-4 c -0.0701,0.039 -1.3089,0.8238 -2.5987,1.6529 1.27447,-0.5021 2.51469,-1.0029 3.59784,-1.4934 -7.73465,-3.7291 -14.14102,-7.085 -18.98774,-11.745 -0.22724,-0.1113 -0.45641,-0.22 -0.68305,-0.327 l 0.42407,-0.2317 0.13582,-0.2874 c 10.29426,0.1621 22.22497,-0.8762 34.2552,-2.6168 14.79643,-2.1408 29.738312,-5.3379 41.941525,-8.6336 23.276733,-6.2499 72.610613,-20.7551 71.405733,-35.94378 l 1.12134,-0.1428 c 0.11124,1.9205 -0.53227,3.8162 -1.76624,5.6794 0.63975,-0.6035 1.29494,-1.2112 1.98161,-1.8238 0.41343,-0.9816 0.94431,-2.0415 1.74819,-3.2327 l 1.05682,0.081 c -0.3685,0.5403 -0.67634,1.0548 -0.94591,1.5478 0.34298,-0.2846 0.69498,-0.5705 1.05372,-0.8574 l 1.04435,-0.8265 -0.0225,0.8876 c -0.63052,15.25648 -38.74959,27.26588 -64.12745,34.22968 -0.6439,0.2044 -1.288278,0.4054 -1.93475,0.6078 -14.38421,4.4959 -31.877156,8.6341 -49.144888,11.1324 -5.94423,0.8601 -11.85886,1.5252 -17.61123,1.9432 -2.82048,0.3256 -5.63201,0.6172 -8.42946,0.8791 0.21684,0.087 0.41247,0.1696 0.55604,0.2419 l -0.61303,0.3883 c 0.23161,0.1901 0.46788,0.3807 0.70434,0.5725 3.94078,2.0973 6.39744,4.0815 8.0606,6.6219 0.3919,0.3634 0.76226,0.7207 1.10436,1.0732 l -0.38765,0.1487 c 0.27109,0.5148 0.5158,1.0537 0.74371,1.6201 l 0.61464,-0.1359 -0.51196,0.4044 c 0.0187,0.048 0.0372,0.099 0.0578,0.1471 l 0.0994,0.2626 -0.54433,0.1133 c -0.12658,0.03 -0.26303,0.056 -0.40805,0.087 -1.39098,0.989 -2.81064,1.4236 -4.2466,1.6313 -0.0338,0 -0.0676,0.01 -0.10349,0.015 -1.14338,0.1655 -2.29687,0.228 -3.63608,0.4217 l -0.0795,-0.556 c 1.45399,-0.2104 2.63674,-0.2772 3.63606,-0.4217 0.84473,-0.1334 1.56908,-0.2892 2.33424,-0.642 -1.16013,0.2413 -2.38654,0.4849 -3.33633,0.6224 -0.2296,0.033 -0.44342,0.064 -0.63631,0.081 l -0.164,-0.537 c 1.22737,-0.3172 4.49769,-0.9676 5.81936,-1.2518 -0.14566,-0.3604 -0.30068,-0.7057 -0.46164,-1.0445 -2.24893,1.062 -5.28878,2.1195 -7.45158,3.093 l -0.58446,-0.2639 c -0.15574,0.083 -0.31159,0.1665 -0.46731,0.2505 0.0946,0.1155 0.20501,0.229 0.29274,0.3446 l -1.06584,0.3063 c -4.53121,-5.9895 -17.9966404,-11.0791 -21.2558704,-18.1508 l 1.02165,-0.326 c 6.52015,4.3295 18.3864304,10.8003 21.5701904,16.5718 z m -1.46707,-7.1663 c -2.20608,-1.5004 -4.46463,-3.0465 -6.77938,-4.4393 2.04151,1.5867 4.30456,3.0356 6.77938,4.4393 z M 163.58634,991.30452 c -0.57716,0.4787 -1.13135,0.9573 -1.66739,1.4344 -1.12772,2.7355 -1.41931,4.9718 -4.50371,7.87238 3.48437,-2.94698 5.72305,-6.05888 6.1711,-9.30678 z m -8.36846,10.18298 c 3.41892,-2.72968 4.1267,-4.80258 5.00377,-7.20218 -5.71833,5.352 -10.00398,10.53758 -20.30274,15.49008 5.85385,-2.3772 11.32897,-5.1059 15.29897,-8.2879 z m -7.54202,5.4832 c -2.84183,1.4306 -5.90914,2.746 -9.03397,3.9644 -8.07351,3.1456 -16.05546,6.128 -24.26348,8.9752 11.64241,-3.571 23.91492,-7.9418 33.29745,-12.9396 z m -51.732981,18.1826 c 1.332232,-0.3551 2.712553,-0.7273 4.129871,-1.1139 8.61335,-2.7277 16.82347,-5.5763 24.95671,-8.5772 -8.17025,2.6453 -16.943,5.0611 -24.34299,7.663 -4.175928,1.467 -8.500383,2.843 -12.93912,4.1266 2.765822,-0.6761 5.498108,-1.3778 8.195529,-2.0985 z m -15.006375,4.2894 c -3.440094,0.7805 -6.919994,1.5234 -10.431157,2.2244 -5.501728,1.2398 -11.099985,2.3507 -16.732625,3.3335 9.23329,-1.4755 18.465064,-3.3957 27.163782,-5.5579 z m -48.918382,8.1346 c 3.0602,-0.3519 6.12612,-0.7444 9.19387,-1.1724 -4.84502,0.5943 -9.69876,1.0956 -14.54942,1.4898 1.76672,-0.08 3.55259,-0.1859 5.35555,-0.3174 z m 17.23177,-2.8144 c 7.08085,-1.0245 14.10867,-2.2435 21.021513,-3.6238 10.4669,-2.3601 20.575833,-5.1839 29.929625,-8.4692 12.09666,-4.2508 27.60034,-7.9698 38.12626,-12.8436 5.9395,-2.7426 9.89572,-5.5706 13.25773,-8.4897 -15.30282,10.5927 -46.23236,19.4436 -63.119446,24.0279 -12.289879,3.3164 -27.304922,6.532 -42.207102,8.6881 -11.49007,1.6625 -22.89759,2.6806 -32.9675,2.6416 0.83396,0.4184 1.6584,0.8668 2.47427,1.3356 11.11464,-0.5275 22.36596,-1.6583 33.48465,-3.2669 z m -17.13543,14.0544 c -0.0223,-0.043 -0.0464,-0.084 -0.0668,-0.13 l -0.0808,0.045 0.14773,0.086 z m -0.56879,-1.071 c -3.76741,-2.6527 -6.76036,-6.3164 -10.40262,-8.1572 -0.0444,-0.021 -0.0886,-0.042 -0.13311,-0.063 l 0.003,-4e-4 -0.003,4e-4 0.5336,-0.2849 c -0.0105,-0.01 -0.0206,-0.016 -0.0313,-0.026 -0.16588,0.013 -0.33131,0.028 -0.49693,0.043 l -1.51335,0.1323 1.18219,-0.6012 c 0.062,-0.032 0.12471,-0.059 0.18727,-0.088 -0.0283,-0.02 -0.054,-0.04 -0.0754,-0.061 -1.36688,0.016 -2.6996,0 -4.03252,-0.021 5.36367,3.2129 10.36435,7.1979 15.00711,9.5616 -0.0733,-0.1426 -0.14297,-0.2926 -0.22481,-0.4318 z m 124.698728,-58.75648 -0.029,-0.1071 c -3.01885,0.3199 -6.08786,0.353 -9.03631,0.088 -1.25161,0.083 -2.5063,0.1288 -3.74885,0.098 l 0.29381,-0.5805 c 0.17772,0.01 0.35967,0.01 0.53922,0.012 l 0.4394,-0.4621 0.005,-7e-4 c 0.90049,0.1444 1.81774,0.2615 2.75127,0.3478 4.2002,-0.3001 8.63305,-1.0459 12.73495,-0.6189 l 1.71708,0.184 -1.13694,0.2267 c 1.23188,0.068 2.42131,0.2411 3.55509,0.5391 l -0.66663,0.5277 c -0.98051,-0.2542 -1.98659,-0.3982 -3.01432,-0.4684 -1.30128,-0.088 -2.63911,-0.045 -4.04389,0.1559 -0.13054,0.019 -0.24083,0.035 -0.36012,0.052 z m -4.63939,-0.4106 c 1.89756,2e-4 3.80321,-0.12 5.67016,-0.3663 -1.80965,0 -3.717,0.1768 -5.67016,0.3663 z m -128.490158,62.40058 0.004,-5e-4 0,0 z"
       id="path4026"
       inkscape:connector-curvature="0"
       style="fill:#1a1a1a"
       sodipodi:nodetypes="cccccccccccccccccccscccccccccccccccccccccccccccccsscccccccccccccccccccscccccccccccccscccccccccccccccssccccsccccccccccccccccccccccccccccccccccccccccccscccccsccscccccccccccccccccccccccccccccccccccccccccccccc" />
  </g>
</svg>
