<svg xmlns="http://www.w3.org/2000/svg" xmlns:xlink="http://www.w3.org/1999/xlink" version="1.1" id="Layer_1" x="0px" y="0px" width="100px" height="83.333px" viewBox="0 0 100 83.333" enable-background="new 0 0 100 83.333" xml:space="preserve">
<path d="M23.611,36.111h5.556L29.167,75H37.5V41.667h8.333V75h8.333V41.667H62.5V75h8.333V36.111h5.556  c1.534,0,2.778-1.243,2.778-2.777c0-0.927-0.459-1.742-1.156-2.246l0.002-0.006l-0.04-0.027c-0.024-0.016-0.049-0.031-0.073-0.047  L51.389,16.062v-4.378c4.895,2.45,8.925-1.771,15.278,0.768V2.778C60.313,0.239,56.283,4.459,51.389,2.01V1.389  C51.389,0.621,50.767,0,50,0s-1.389,0.621-1.389,1.389v14.673L22.1,31.007c-0.024,0.016-0.049,0.031-0.073,0.047l-0.039,0.027  l0.001,0.006c-0.697,0.504-1.155,1.319-1.155,2.246C20.833,34.868,22.077,36.111,23.611,36.111z"/>
<polygon points="26.389,77.778 20.833,83.333 79.167,83.333 73.611,77.778 "/>
<path d="M73.611,38.889V75h1.15l0.813,0.814l5.556,5.556l1.964,1.964H100V38.889H73.611z M84.723,68.055h-5.556v-8.333h5.556V68.055  z M84.723,54.167h-5.556v-8.333h5.556V54.167z M94.444,68.055h-5.556v-8.333h5.556V68.055z M94.444,54.167h-5.556v-8.333h5.556  V54.167z"/>
<path d="M25.239,75h1.15v-36.11H0v44.444h16.905l1.964-1.964l5.556-5.556L25.239,75z M11.111,68.055H5.556v-8.333h5.556V68.055z   M11.111,54.167H5.556v-8.333h5.556V54.167z M20.833,68.055h-5.556v-8.333h5.556V68.055z M20.833,54.167h-5.556v-8.333h5.556V54.167  z"/>
</svg>