<svg xmlns="http://www.w3.org/2000/svg" xmlns:xlink="http://www.w3.org/1999/xlink" version="1.1" id="Layer_1" x="0px" y="0px" width="100px" height="100px" viewBox="0 0 100 100" enable-background="new 0 0 100 100" xml:space="preserve">
<path d="M50.123,13.665c-1.917,0-8.432,0.09-14.569,1.198C34.801,18.127,31.513,29.112,21.3,29.9  c-0.192,2.428-0.454,8.75,1.004,16.565c3.675,0.878,14.169,3.029,28.596,2.97V13.671C50.816,13.671,50.562,13.665,50.123,13.665z"/>
<path d="M50.899,86.164C70.24,75.846,77.168,59.127,79.521,46.393c-10.49,2.226-20.22,3.014-28.621,3.042V86.164z"/>
<path d="M89.052,23.537c-14.883,0-17.777-18.468-17.777-18.468c-9.688-1.917-20.375-1.707-20.375-1.707s-10.686-0.21-20.375,1.707  c0,0-2.895,18.468-17.778,18.468c0,0-6.791,49.736,38.153,73.107C95.844,73.273,89.052,23.537,89.052,23.537z M51.493,88.766  l-0.594,0.309l-0.596-0.309C13.672,69.715,18.792,28.889,18.851,28.479l0.152-1.115h1.124c10.775,0,13.043-13.667,13.067-13.805  l0.138-0.889l0.884-0.178c6.417-1.269,13.262-1.402,15.907-1.402c0.474,0,0.753,0.004,0.795,0.004c0.003,0,0.283-0.004,0.757-0.004  c2.646,0,9.487,0.134,15.907,1.402l0.882,0.178l0.142,0.889c0.091,0.562,2.322,13.805,13.066,13.805h1.125l0.151,1.115  C83.005,28.889,88.127,69.715,51.493,88.766z"/>
</svg>