<svg xmlns:dc="http://purl.org/dc/elements/1.1/" xmlns:cc="http://creativecommons.org/ns#" xmlns:rdf="http://www.w3.org/1999/02/22-rdf-syntax-ns#" xmlns:svg="http://www.w3.org/2000/svg" xmlns="http://www.w3.org/2000/svg" xmlns:sodipodi="http://sodipodi.sourceforge.net/DTD/sodipodi-0.dtd" xmlns:inkscape="http://www.inkscape.org/namespaces/inkscape" id="svg2" version="1.1" inkscape:version="0.48.4 r9939" width="100.0px" height="100px" xml:space="preserve" sodipodi:docname="bubble-chart.svg"><metadata id="metadata8"><rdf:RDF><cc:Work rdf:about=""><dc:format>image/svg+xml</dc:format><dc:type rdf:resource="http://purl.org/dc/dcmitype/StillImage"/><dc:title/></cc:Work></rdf:RDF></metadata><defs id="defs6"/><sodipodi:namedview pagecolor="#ffffff" bordercolor="#666666" borderopacity="1" objecttolerance="10" gridtolerance="10" guidetolerance="10" inkscape:pageopacity="0" inkscape:pageshadow="2" inkscape:window-width="882" inkscape:window-height="634" id="namedview4" showgrid="false" inkscape:zoom="2.6700352" inkscape:cx="75.982968" inkscape:cy="62.5" inkscape:window-x="0" inkscape:window-y="0" inkscape:window-maximized="0" inkscape:current-layer="g10"/><g id="g10" inkscape:groupmode="layer" inkscape:label="The_Noun_Project_Single_Icon_Template_v1.1" transform="matrix(1.25,0,0,-1.25,0,125)"><path sodipodi:type="arc" style="fill:#000000;fill-opacity:1;stroke:#00ffff;stroke-width:0;stroke-miterlimit:4;stroke-opacity:1;stroke-dasharray:none" id="path2996" sodipodi:cx="245" sodipodi:cy="518.79077" sodipodi:rx="43.57143" sodipodi:ry="43.57143" d="m 288.57143,518.79077 a 43.57143,43.57143 0 1 1 -87.14286,0 43.57143,43.57143 0 1 1 87.14286,0 z" transform="matrix(0.25844331,0,0,-0.25844331,-32.36852,173.76882)" inkscape:export-filename="S:\Comms and Marketing\Marketing\Brochures\Visulite\Images-for-Visulite-userGuide\images\graph-bubble-chart.png" inkscape:export-xdpi="90" inkscape:export-ydpi="90"/><path sodipodi:type="arc" style="fill:#000000;fill-opacity:1;stroke:#00ffff;stroke-width:0;stroke-miterlimit:4;stroke-opacity:1;stroke-dasharray:none" id="path2998" sodipodi:cx="345" sodipodi:cy="460.21933" sodipodi:rx="47.857143" sodipodi:ry="47.857143" d="m 392.85714,460.21933 a 47.857143,47.857143 0 1 1 -95.71428,0 47.857143,47.857143 0 1 1 95.71428,0 z" transform="matrix(0.25844331,0,0,-0.25844331,-33.402294,173.76882)" inkscape:export-filename="S:\Comms and Marketing\Marketing\Brochures\Visulite\Images-for-Visulite-userGuide\images\graph-bubble-chart.png" inkscape:export-xdpi="90" inkscape:export-ydpi="90"/><path sodipodi:type="arc" style="fill:#000000;fill-opacity:1;stroke:#00ffff;stroke-width:0;stroke-miterlimit:4;stroke-opacity:1;stroke-dasharray:none" id="path3000" sodipodi:cx="481.42856" sodipodi:cy="439.50504" sodipodi:rx="31.428572" sodipodi:ry="31.428572" d="m 512.85713,439.50504 a 31.428572,31.428572 0 1 1 -62.85714,0 31.428572,31.428572 0 1 1 62.85714,0 z" transform="matrix(0.25844331,0,0,-0.25844331,-81.103539,199.24395)" inkscape:export-filename="S:\Comms and Marketing\Marketing\Brochures\Visulite\Images-for-Visulite-userGuide\images\graph-bubble-chart.png" inkscape:export-xdpi="90" inkscape:export-ydpi="90"/><path sodipodi:type="arc" style="fill:#000000;fill-opacity:1;stroke:#00ffff;stroke-width:0;stroke-miterlimit:4;stroke-opacity:1;stroke-dasharray:none" id="path3002" sodipodi:cx="425.71429" sodipodi:cy="519.50507" sodipodi:rx="62.857143" sodipodi:ry="62.857143" d="m 488.57144,519.50507 a 62.857143,62.857143 0 1 1 -125.71429,0 62.857143,62.857143 0 1 1 125.71429,0 z" transform="matrix(0.25844331,0,0,-0.25844331,-31.260903,176.35326)" inkscape:export-filename="S:\Comms and Marketing\Marketing\Brochures\Visulite\Images-for-Visulite-userGuide\images\graph-bubble-chart.png" inkscape:export-xdpi="90" inkscape:export-ydpi="90"/><path sodipodi:type="arc" style="fill:#000000;fill-opacity:1;stroke:#00ffff;stroke-width:0;stroke-miterlimit:4;stroke-opacity:1;stroke-dasharray:none" id="path3004" sodipodi:cx="494.28571" sodipodi:cy="563.79077" sodipodi:rx="20" sodipodi:ry="20" d="m 514.28571,563.79077 a 20,20 0 1 1 -40,0 20,20 0 1 1 40,0 z" transform="matrix(0.25844331,0,0,-0.25844331,-92.179679,197.76713)" inkscape:export-filename="S:\Comms and Marketing\Marketing\Brochures\Visulite\Images-for-Visulite-userGuide\images\graph-bubble-chart.png" inkscape:export-xdpi="90" inkscape:export-ydpi="90"/><path sodipodi:type="arc" style="fill:#000000;fill-opacity:1;stroke:#00ffff;stroke-width:0;stroke-miterlimit:4;stroke-opacity:1;stroke-dasharray:none" id="path3006" sodipodi:cx="336.42856" sodipodi:cy="541.64789" sodipodi:rx="29.285715" sodipodi:ry="29.285715" d="m 365.71427,541.64789 a 29.285715,29.285715 0 1 1 -58.57143,0 29.285715,29.285715 0 1 1 58.57143,0 z" transform="matrix(0.25844331,0,0,-0.25844331,-32.36852,173.76882)" inkscape:export-filename="S:\Comms and Marketing\Marketing\Brochures\Visulite\Images-for-Visulite-userGuide\images\graph-bubble-chart.png" inkscape:export-xdpi="90" inkscape:export-ydpi="90"/><rect style="fill:#000000;fill-opacity:1;stroke:none" id="rect7583-2" width="6.4610825" height="100.42368" x="-15.415612" y="-100.3606" transform="matrix(0,-1,-1,0,0,0)" inkscape:export-filename="S:\Comms and Marketing\Marketing\Brochures\Visulite\Images-for-Visulite-userGuide\images\graph-bubble-chart.png" inkscape:export-xdpi="90" inkscape:export-ydpi="90"/><rect style="fill:#000000;fill-opacity:1;stroke:none" id="rect7583-2-2" width="6.4610825" height="98.577675" x="9.4439201" y="-98.394386" inkscape:export-filename="S:\Comms and Marketing\Marketing\Brochures\Visulite\Images-for-Visulite-userGuide\images\graph-bubble-chart.png" inkscape:export-xdpi="90" inkscape:export-ydpi="90" transform="scale(1,-1)"/></g></svg>