<svg xmlns="http://www.w3.org/2000/svg" xmlns:xlink="http://www.w3.org/1999/xlink" version="1.1" id="Layer_1" x="0px" y="0px" width="100px" height="100px" viewBox="0 0 100 100" enable-background="new 0 0 100 100" xml:space="preserve">
<path fill="#000000" d="M44.28,52.356c-0.14-0.117-0.28-0.209-0.408-0.337c-4.169-3.355-7.349-9.889-7.349-15.165  c0-7.465,6.848-13.522,13.324-13.522s12.975,6.453,12.975,13.918c0,5.289-3.506,11.611-7.861,14.851  c0.896,3.051,5.788,1.956,15.885,4.426c8.048,1.979,11.718,5.042,13.127,8.315H14.825c1.421-3.273,5.09-6.336,13.126-8.315  c9.83-2.41,14.722-1.328,15.805-4.17H44.28z"/>
<g id="XMLID_1_">
	<g>
		<g id="XMLID_2_">
			<g>
				<path fill="#000000" d="M12.879,67.139h74.074V18.775H12.879V67.139z M8.12,17.808c0-2.138,1.731-3.869,3.869-3.869h75.853      c2.138,0,3.869,1.731,3.869,3.869v51.266c0,2.137-1.731,3.868-3.869,3.868H62.49v6.529c0,0.426-0.068,0.832-0.194,1.209h11.559      c1.47,0,2.66,1.19,2.66,2.66S75.326,86,73.855,86H25.976c-1.471,0-2.66-1.19-2.66-2.66c0-0.734,0.3-1.402,0.784-1.886      c0.474-0.475,1.141-0.774,1.876-0.774h11.558c-0.125-0.377-0.193-0.783-0.193-1.209v-6.529H11.989      c-2.138,0-3.869-1.731-3.869-3.868V17.808z"/>
			</g>
		</g>
	</g>
</g>
</svg>